# Blender 5.0.0 Alpha
# www.blender.org
mtllib cornell_box.mtl
o CornellBox
v -0.736780 -1.000000 0.736780
v -0.736780 1.000000 0.736780
v -0.736780 -1.000000 -0.736780
v -0.175092 1.000000 -0.175092
v 0.736780 -1.000000 0.736780
v 0.736780 1.000000 0.736780
v 0.736780 -1.000000 -0.736780
v 0.175092 1.000000 -0.175092
v -0.736780 1.000000 -0.736780
v -0.175092 1.000000 0.175092
v 0.736780 1.000000 -0.736780
v 0.175092 1.000000 0.175092
vn -0.0000 -0.0000 1.0000
vn -0.0000 1.0000 -0.0000
vn -0.0000 -1.0000 -0.0000
vn 1.0000 -0.0000 -0.0000
vn -1.0000 -0.0000 -0.0000
s 1
usemtl Base
f 7//1 9//1 3//1
f 1//2 7//2 3//2
f 10//3 9//3 4//3
f 4//3 11//3 8//3
f 8//3 6//3 12//3
f 12//3 2//3 10//3
f 7//1 11//1 9//1
f 1//2 5//2 7//2
f 10//3 2//3 9//3
f 4//3 9//3 11//3
f 8//3 11//3 6//3
f 12//3 6//3 2//3
usemtl Light
f 12//3 4//3 8//3
f 12//3 10//3 4//3
usemtl Green
f 3//4 2//4 1//4
f 3//4 9//4 2//4
usemtl Red
f 5//5 11//5 7//5
f 5//5 6//5 11//5
o GlassBox
v -0.033556 -0.999971 0.403007
v -0.033556 -0.500547 0.403007
v 0.134199 -0.999971 -0.056151
v 0.134199 -0.500547 -0.056151
v 0.425602 -0.999971 0.570763
v 0.425602 -0.500547 0.570763
v 0.593357 -0.999971 0.111605
v 0.593357 -0.500547 0.111605
vn -0.9393 -0.0000 -0.3432
vn 0.3432 -0.0000 -0.9393
vn 0.9393 -0.0000 0.3432
vn -0.3432 -0.0000 0.9393
vn -0.0000 -1.0000 -0.0000
vn -0.0000 1.0000 -0.0000
vt 0.625000 0.000000
vt 0.375000 0.250000
vt 0.375000 0.000000
vt 0.625000 0.250000
vt 0.375000 0.500000
vt 0.625000 0.500000
vt 0.375000 0.750000
vt 0.625000 0.750000
vt 0.375000 1.000000
vt 0.125000 0.750000
vt 0.125000 0.500000
vt 0.875000 0.500000
vt 0.625000 1.000000
vt 0.875000 0.750000
s 1
usemtl Glass
f 14/1/6 15/2/6 13/3/6
f 16/4/7 19/5/7 15/2/7
f 20/6/8 17/7/8 19/5/8
f 18/8/9 13/9/9 17/7/9
f 19/5/10 13/10/10 15/11/10
f 16/12/11 18/8/11 20/6/11
f 14/1/6 16/4/6 15/2/6
f 16/4/7 20/6/7 19/5/7
f 20/6/8 18/8/8 17/7/8
f 18/8/9 14/13/9 13/9/9
f 19/5/10 17/7/10 13/10/10
f 16/12/11 14/14/11 18/8/11
o MetalBox
v -0.450460 -0.999971 0.092924
v -0.450460 -0.108539 0.092924
v -0.651605 -0.999971 -0.352619
v -0.651605 -0.108539 -0.352619
v -0.004917 -0.999971 -0.108222
v -0.004917 -0.108539 -0.108222
v -0.206063 -0.999971 -0.553765
v -0.206063 -0.108539 -0.553765
vn -0.9114 -0.0000 0.4115
vn -0.4115 -0.0000 -0.9114
vn 0.9114 -0.0000 -0.4115
vn 0.4115 -0.0000 0.9114
vn -0.0000 -1.0000 -0.0000
vn -0.0000 1.0000 -0.0000
vt 0.625000 0.000000
vt 0.375000 0.250000
vt 0.375000 0.000000
vt 0.625000 0.250000
vt 0.375000 0.500000
vt 0.625000 0.500000
vt 0.375000 0.750000
vt 0.625000 0.750000
vt 0.375000 1.000000
vt 0.125000 0.750000
vt 0.125000 0.500000
vt 0.875000 0.500000
vt 0.625000 1.000000
vt 0.875000 0.750000
s 1
usemtl Metal
f 22/15/12 23/16/12 21/17/12
f 24/18/13 27/19/13 23/16/13
f 28/20/14 25/21/14 27/19/14
f 26/22/15 21/23/15 25/21/15
f 27/19/16 21/24/16 23/25/16
f 24/26/17 26/22/17 28/20/17
f 22/15/12 24/18/12 23/16/12
f 24/18/13 28/20/13 27/19/13
f 28/20/14 26/22/14 25/21/14
f 26/22/15 22/27/15 21/23/15
f 27/19/16 25/21/16 21/24/16
f 24/26/17 22/28/17 26/22/17
