# Blender 4.5.0 Alpha
# www.blender.org
o Cube
v -0.287931 -0.175709 -0.013897
v -0.292008 0.232333 -0.123272
v 0.073791 -0.228837 -0.225586
v 0.069714 0.179204 -0.334962
v -0.069714 -0.080017 0.334962
v -0.073791 0.328025 0.225586
v 0.292008 -0.133146 0.123272
v 0.287931 0.274896 0.013897
v -22.361143 -0.205740 22.361143
v 22.361143 -0.205740 22.361143
v -22.361143 -0.205740 -22.361143
v 22.361143 -0.205740 -22.361143
vn -0.5165 -0.2265 -0.8258
vn 0.8562 -0.1258 -0.5011
vn 0.5165 0.2265 0.8258
vn -0.8562 0.1258 0.5011
vn 0.0097 -0.9659 0.2589
vn -0.0097 0.9659 -0.2589
vn -0.0000 1.0000 -0.0000
vt 0.625000 0.000000
vt 0.375000 0.250000
vt 0.375000 0.000000
vt 0.625000 0.250000
vt 0.375000 0.500000
vt 0.625000 0.500000
vt 0.375000 0.750000
vt 0.625000 1.000000
vt 0.375000 1.000000
vt 0.125000 0.750000
vt 0.125000 0.500000
vt 0.875000 0.500000
vt 0.625000 0.750000
vt 1.000000 0.000000
vt 0.000000 1.000000
vt 0.000000 0.000000
vt 0.875000 0.750000
vt 1.000000 1.000000
s 0
f 2/1/1 3/2/1 1/3/1
f 4/4/2 7/5/2 3/2/2
f 8/6/3 5/7/3 7/5/3
f 5/7/4 2/8/4 1/9/4
f 7/5/5 1/10/5 3/11/5
f 4/12/6 6/13/6 8/6/6
f 10/14/7 11/15/7 9/16/7
f 2/1/1 4/4/1 3/2/1
f 4/4/2 8/6/2 7/5/2
f 8/6/3 6/13/3 5/7/3
f 5/7/4 6/13/4 2/8/4
f 7/5/5 5/7/5 1/10/5
f 4/12/6 2/17/6 6/13/6
f 10/14/7 12/18/7 11/15/7
