# Blender 4.5.0 Alpha
# www.blender.org
mtllib suzanne_eyes.mtl
o Suzanne
v -0.000111 0.037219 0.770657
v -0.309245 -0.865197 0.235522
v -0.172697 -0.755253 0.376033
v 0.024483 -0.179649 0.717368
v -0.248272 -0.275532 0.821225
v -0.123060 -0.317131 0.640846
v -0.211384 -0.574965 0.487950
v -0.364339 -0.445452 0.542191
v -0.327554 -0.336817 0.606942
v -0.403455 -0.169647 0.840295
v -0.483858 -0.189377 0.633832
v -0.572182 -0.447210 0.480937
v -0.496712 0.012090 0.700713
v -0.695441 -0.568035 0.356697
v -0.569296 -0.656831 0.551726
v -0.560223 -0.800719 0.435810
v -0.360909 0.164974 0.763644
v -0.670043 -0.737442 0.228508
v -0.150237 0.176414 0.799435
v -0.508156 -0.868648 0.179681
v -0.295673 -0.030569 0.892641
v -0.385784 -0.677258 0.583613
v -0.147784 -0.148041 0.891899
v -0.380454 -0.827243 0.489130
v 0.034557 -0.594553 0.698264
v -0.197284 0.511021 -0.701363
v 0.462848 0.047564 -0.275171
v 0.139236 -0.290587 0.581183
v 0.671469 -1.034158 0.342548
v 0.135663 0.006981 0.772301
v -0.264653 0.338480 0.935814
v -0.594587 -0.610948 0.520523
v -0.496858 -0.099630 0.797771
v 0.050283 -0.575787 0.657535
v 0.000134 -0.553974 0.649721
v 0.003316 -0.508151 0.746298
v -0.215740 -0.941013 0.220144
v -0.712456 -1.003835 0.150823
v -0.834126 -0.546577 0.611797
v -0.698697 -0.128794 0.853472
v -0.496121 -0.417441 0.697020
v -0.055710 -0.644731 0.648411
v 0.890764 -0.468068 0.690044
v 0.132589 -0.481510 0.725463
v 0.176329 -0.630137 0.669199
v 0.057070 -0.701561 0.603577
v 0.650017 -0.675894 0.673930
v 0.644470 -0.834111 0.584713
v -0.617160 -0.722828 0.446994
v -0.560999 -0.830908 0.320820
v -0.475900 -0.857300 0.326072
v -0.328047 -0.808705 0.422688
v -0.366254 -0.250361 0.754375
v -0.468874 -0.579111 0.562298
v -0.420286 -0.138531 0.855075
v -0.196720 -0.285553 0.766358
v -0.072446 -0.121473 0.809552
v -0.156973 0.026087 0.858481
v -0.251197 0.077948 0.852282
v -0.320119 -0.649754 0.547432
v -0.519631 -0.315158 0.542158
v -0.924103 -0.438428 0.475412
v -0.782112 -0.024111 0.720331
v -0.712148 -0.586124 0.180415
v -0.366625 -0.961168 -0.088981
v 0.047538 -0.668871 0.330114
v 0.050182 0.336395 0.733711
v -0.953905 0.071713 0.149309
v 0.206589 0.152039 -0.683864
v -0.537136 -0.523232 -0.817843
v 0.265144 -0.638048 0.200911
v 0.741570 -0.904612 0.226567
v 0.876109 -0.393892 0.530216
v 0.412122 -0.473727 0.276978
v 0.378721 -0.272368 0.364409
v -0.736342 0.524080 -0.360581
v -0.789527 -0.356214 -0.696381
v -1.004963 -0.320112 -0.137072
v -0.744726 0.446792 0.344026
v -0.451211 0.171557 0.627631
v -0.656405 -0.802690 -0.093276
v -0.231011 0.447691 0.638452
v -0.308411 0.831452 0.067135
v 0.113639 -0.346174 -0.608748
v 0.315454 0.301107 0.128424
v -0.270914 -0.992249 -1.015998
v -0.725260 -0.787417 -0.876556
v 0.125822 1.138611 0.199440
v 0.420841 0.979383 0.231846
v 0.295070 0.443094 0.237113
v -0.047315 0.744821 0.247689
v 0.293418 0.667629 0.161195
v -0.291516 -0.899262 -0.943885
v -0.561504 -0.859177 -0.985432
v -0.499047 -0.717731 -0.795743
v -0.266902 -0.650447 -0.660099
v 0.180164 0.659536 0.115592
v -0.108474 -0.713753 -0.466979
v -0.549041 -0.662119 -0.590438
v 0.062481 0.907306 0.163263
v -0.185247 -0.735580 -0.673599
v 0.365442 0.996891 0.158942
v -0.718528 -0.859617 -1.087956
v -0.007759 1.256244 0.109489
v 0.032732 1.256365 0.257119
v 0.453132 1.088251 0.122622
v -0.046718 -0.698115 -0.657376
v 0.322092 0.556165 0.015170
v -0.026511 0.815271 0.060386
vn 0.2184 0.2690 0.9381
vn -0.2039 -0.9558 0.2120
vn 0.6999 -0.0946 0.7080
vn 0.4364 -0.8638 0.2518
vn 0.4574 -0.6789 0.5744
vn 0.5421 -0.4340 0.7196
vn 0.0502 -0.9650 0.2574
vn -0.4821 -0.7789 0.4011
vn -0.1479 0.1872 0.9711
vn -0.2716 0.3046 0.9129
vn -0.7829 0.1893 0.5926
vn -0.1713 0.5021 0.8477
vn -0.1512 -0.3855 0.9103
vn -0.2021 -0.5271 0.8254
vn -0.1744 -0.2256 0.9585
vn -0.3068 -0.6087 0.7316
vn 0.8822 -0.2469 0.4009
vn 0.6385 -0.7236 0.2620
vn 0.5400 -0.0222 0.8414
vn -0.8671 -0.4487 0.2162
vn -0.8069 -0.5892 0.0423
vn 0.0854 -0.6948 0.7141
vn 0.0846 -0.6962 0.7129
vn 0.0342 -0.0592 0.9977
vn -0.3511 -0.3921 0.8503
vn 0.6176 -0.5712 0.5407
vn 0.0486 -0.1331 0.9899
vn -0.2826 -0.8251 -0.4893
vn -0.5956 0.3561 0.7200
vn 0.2104 -0.2913 0.9332
vn -0.0736 -0.6053 0.7926
vn 0.1337 -0.8970 0.4212
vn -0.3527 0.2038 0.9133
vn 0.2692 -0.1607 0.9496
vn -0.0613 -0.8509 0.5218
vn -0.4835 0.5468 -0.6836
vn -0.6341 -0.6637 0.3968
vn -0.7902 -0.5597 -0.2497
vn -0.3250 0.7657 0.5551
vn 0.2361 0.9032 0.3584
vn 0.3873 0.3937 -0.8337
vn 0.1970 0.2612 -0.9450
vn 0.9736 -0.1594 -0.1633
vn 0.0838 0.9068 0.4132
vn -0.2695 -0.5573 -0.7854
vn 0.3777 0.4208 -0.8248
vn 0.9810 0.0877 0.1729
vn 0.0440 0.9243 -0.3790
vn -0.3210 0.7655 0.5577
vn -0.7715 -0.5808 -0.2597
vn -0.3776 0.2114 -0.9015
vn -0.1647 0.8295 -0.5337
vn -0.6355 0.2661 0.7248
vn -0.1196 0.8166 0.5647
vn -0.6825 -0.6514 -0.3316
vn 0.0620 0.9319 0.3574
vn 0.9543 0.1976 0.2244
vn 0.5073 0.7551 -0.4153
vn 0.3081 -0.0089 -0.9513
vn 0.3492 -0.2031 -0.9148
vn -0.2004 -0.9291 0.3109
vn -0.4180 -0.6442 0.6405
vn 0.0381 -0.8071 0.5892
vn 0.8970 -0.1802 0.4036
vn 0.6014 0.6670 0.4399
vn -0.0315 -0.9571 -0.2879
vn 0.1213 -0.9345 0.3346
vn 0.0473 -0.8503 -0.5242
vn 0.5242 0.0860 0.8472
vn -0.3326 -0.3281 0.8842
vn 0.0131 0.0040 0.9999
vn -0.2674 -0.7740 0.5739
vn 0.0647 -0.1715 0.9831
vn -0.9543 0.1445 0.2616
vn -0.9180 0.3580 0.1706
vn 0.3025 0.6355 -0.7104
vn 0.3433 0.9344 -0.0949
vn 0.9897 0.0359 0.1388
vn 0.4036 0.2536 0.8791
vn -0.0226 -0.9896 0.1418
vn 0.4485 -0.7510 0.4845
vn 0.5949 -0.3279 0.7339
vn 0.4216 0.1216 0.8986
vn -0.6232 -0.7174 0.3113
vn -0.9104 -0.1815 0.3719
vn -0.8491 -0.3629 0.3840
vn 0.2932 -0.2883 0.9115
vn -0.6120 -0.7864 0.0842
vn 0.0266 0.6021 0.7980
vn -0.5021 -0.8606 -0.0854
vn 0.2887 0.1850 0.9394
vn 0.1250 -0.9922 0.0037
vn -0.5835 0.4195 0.6954
vn -0.3992 0.5718 0.7167
vn 0.2974 -0.4267 0.8541
vn -0.2267 -0.5746 0.7864
vn -0.0537 -0.6757 0.7352
vn -0.2302 -0.3079 0.9232
vn 0.0332 -0.5232 0.8516
vn -0.2181 -0.7626 0.6090
vn -0.0881 -0.6464 0.7579
vn -0.1034 -0.5738 0.8124
vn -0.2338 -0.6454 0.7272
vn 0.3508 -0.4693 0.8104
vn -0.0559 -0.4889 0.8705
vn -0.7770 0.6142 0.1377
vn -0.8628 -0.4452 0.2397
vn 0.1690 0.5249 -0.8342
vn 0.0241 -0.5892 0.8076
vn 0.0044 0.6028 0.7979
vn -0.4759 -0.8751 -0.0880
vn 0.4566 -0.5333 0.7121
vn 0.5390 -0.5365 0.6493
vn -0.4388 0.3534 0.8262
vn -0.8011 0.0429 -0.5970
vn 0.8270 -0.4614 -0.3211
vn -0.3609 -0.6773 -0.6410
vn 0.7420 -0.5870 -0.3239
vn 0.9080 -0.4085 0.0925
vn 0.1820 0.9425 0.2803
vn -0.3407 -0.6064 -0.7185
vn 0.9304 0.2059 -0.3032
vn 0.8052 0.4460 -0.3909
vn 0.7961 -0.2328 -0.5587
vn -0.9502 0.2549 -0.1793
vn 0.5966 0.6481 -0.4733
vn 0.1100 0.0755 -0.9911
vn -0.8816 0.4703 0.0411
vn -0.4976 0.3352 -0.8000
vn -0.6903 0.0094 0.7235
vn -0.2332 0.8851 -0.4028
vn -0.6313 0.7717 0.0771
vn -0.4679 0.3411 0.8153
vn -0.7917 -0.5472 0.2717
vn -0.7631 -0.2523 0.5951
vn 0.6270 -0.7750 -0.0791
vn 0.0920 0.7713 0.6297
vn -0.4489 -0.8298 -0.3316
vn -0.6329 -0.6456 -0.4274
vn -0.0614 -0.9426 -0.3283
vn 0.6115 0.3578 0.7057
vn -0.3191 -0.8099 0.4922
vn 0.8686 -0.4298 0.2464
vn 0.9533 0.1015 0.2844
vn -0.7642 0.1714 0.6218
vn 0.2912 -0.2252 0.9298
vn -0.7061 -0.5250 0.4752
vn -0.4824 -0.8613 0.1597
vn 0.9736 -0.2283 0.0022
vn -0.3750 0.2944 0.8790
vn -0.6589 -0.6822 0.3169
vn 0.5561 0.6113 0.5630
vn 0.3182 -0.9450 -0.0758
vn -0.9380 0.0405 0.3442
vn -0.3446 -0.4603 0.8181
vn -0.2080 -0.7501 0.6278
vn 0.0169 0.1939 -0.9809
vn 0.6798 -0.7153 0.1617
vn 0.4475 0.5637 0.6942
vn -0.1393 0.9357 -0.3240
vn -0.9945 0.0524 -0.0908
vn 0.4145 0.4233 -0.8056
vn -0.6468 0.2272 0.7280
vn -0.8591 -0.3844 0.3378
vn -0.0321 -0.3021 0.9527
vn 0.0091 -0.3049 0.9523
vn 0.0093 -0.7733 0.6340
vn -0.1178 -0.2393 0.9638
vn -0.1539 -0.7701 0.6190
vn -0.0446 -0.3651 0.9299
vn -0.5316 0.8367 -0.1314
vn -0.9773 0.0157 -0.2115
vn 0.7671 -0.5002 -0.4017
vn -0.9112 0.1937 -0.3635
vn -0.3100 0.2064 -0.9280
vn -0.6857 -0.0313 0.7272
vn -0.8103 -0.2733 0.5184
vn 0.8254 -0.5492 -0.1306
vn 0.9161 0.0329 0.3996
vn -0.2086 -0.6278 0.7499
vn -0.7902 0.1910 0.5822
vn 0.7140 -0.1244 0.6890
vn 0.9683 -0.2466 0.0404
vn 0.0675 0.1076 -0.9919
vt 0.858469 0.584075
vt 0.838734 0.620063
vt 0.781448 0.527061
vt 0.858178 0.892925
vt 0.894119 0.873197
vt 0.951175 0.950206
vt 0.781649 0.696591
vt 0.746541 0.611927
vt 0.781649 0.950010
vt 0.866314 0.985118
vt 0.874499 0.640266
vt 0.837905 0.857235
vt 0.951265 0.696878
vt 0.866314 0.731700
vt 0.893757 0.600813
vt 0.876752 0.837714
vt 0.781356 0.780387
vt 0.866314 0.745572
vt 0.951006 0.780653
vt 0.866314 0.492154
vt 0.593345 0.164779
vt 0.637054 0.232963
vt 0.516522 0.196042
vt 0.364663 0.238786
vt 0.401984 0.164131
vt 0.481180 0.198122
vt 0.672181 0.318995
vt 0.606234 0.291724
vt 0.697916 0.256778
vt 0.415223 0.372430
vt 0.402557 0.403335
vt 0.327061 0.317007
vt 0.501299 0.357938
vt 0.585972 0.372349
vt 0.597404 0.403247
vt 0.416352 0.314465
vt 0.573207 0.285679
vt 0.428270 0.284310
vt 0.528359 0.068259
vt 0.492983 0.081781
vt 0.470524 0.068472
vt 0.528367 0.172932
vt 0.506995 0.086093
vt 0.500000 0.192167
vt 0.500000 0.203867
vt 0.500000 0.197278
vt 0.498787 0.159990
vt 0.472786 0.174980
vt 0.593347 0.281299
vt 0.393884 0.291547
vt 0.406653 0.281173
vt 0.391378 0.299704
vt 0.403546 0.309479
vt 0.572673 0.304545
vt 0.587218 0.311956
vt 0.587653 0.329649
vt 0.501492 0.428636
vt 0.745855 0.311761
vt 0.619337 0.027004
vt 0.537536 0.060658
vt 0.520125 0.029824
vt 0.380697 0.027237
vt 0.466690 0.056736
vt 0.384926 0.087938
vt 0.622427 0.088392
vt 0.786061 0.050571
vt 0.952304 0.162574
vt 0.840064 0.233992
vt 0.813499 0.190705
vt 0.855079 0.336210
vt 0.251010 0.310948
vt 0.142320 0.333512
vt 0.145490 0.240294
vt 0.802929 0.475819
vt 0.734532 0.447084
vt 0.763410 0.379131
vt 0.265611 0.446814
vt 0.206279 0.465018
vt 0.236968 0.379349
vt 0.951006 0.527235
vt 0.797447 0.204842
vt 0.199606 0.202260
vt 0.772068 0.156780
vt 0.825762 0.147055
vt 0.196211 0.171181
vt 0.179988 0.189535
vt 0.192667 0.112466
vt 0.105721 0.050929
vt 0.125562 0.877212
vt 0.073422 0.702082
vt 0.198000 0.803919
vt 0.551509 0.803967
vt 0.579014 0.721438
vt 0.705153 0.718451
vt 0.255119 0.811296
vt 0.786507 0.181864
vt 0.318905 0.903519
vt 0.314634 0.758107
vt 0.323844 0.661976
vt 0.285094 0.246589
vt 0.214801 0.178280
vt 0.438899 0.763049
vt 0.500414 0.811598
vt 0.418214 0.863717
vt 0.450281 0.733972
vt 0.522900 0.758927
vt 0.217444 0.754772
vt 0.298988 0.731089
vt 0.675824 0.682374
vt 0.718821 0.547204
vt 0.030670 0.553627
vt 0.106907 0.584723
vt 0.137036 0.701133
vt 0.184976 0.594008
vt 0.633749 0.680652
vt 0.408153 0.587507
vt 0.559167 0.585862
vt 0.442447 0.672552
vt 0.746541 0.865345
vt 0.986087 0.611927
vt 0.986087 0.865345
vt 0.610225 0.300107
vt 0.426658 0.303319
vt 0.666214 0.388954
vt 0.710071 0.321194
vt 0.333786 0.388954
vt 0.225396 0.010837
vt 0.896830 0.048743
vt 0.000140 0.253531
vt 0.082389 0.401774
vt 0.012367 0.154243
vt 0.917611 0.401774
vt 0.961949 0.256608
vt 0.674150 0.815538
vt 0.643465 0.585020
vt 0.023095 0.698475
s 0
usemtl monkey_diffuse
f 21/1/1 23/2/1 19/3/1
f 24/4/2 16/5/2 20/6/2
f 23/2/3 4/7/3 1/8/3
f 3/9/4 24/4/4 2/10/4
f 23/2/5 5/11/5 4/7/5
f 22/12/6 24/4/6 3/9/6
f 9/13/7 6/14/7 5/11/7
f 5/11/8 10/15/8 9/13/8
f 15/16/9 22/12/9 8/17/9
f 15/16/10 8/17/10 12/18/10
f 15/16/11 12/18/11 14/19/11
f 19/3/12 17/20/12 21/1/12
f 28/21/17 30/22/17 36/23/17
f 37/24/18 66/25/18 42/26/18
f 31/27/19 58/28/19 67/29/19
f 39/30/20 62/31/20 38/32/20
f 41/33/21 40/34/21 63/35/21
f 32/36/22 41/33/22 39/30/22
f 38/32/23 32/36/23 39/30/23
f 36/23/24 30/22/24 56/37/24
f 56/37/25 60/38/25 36/23/25
f 43/39/26 48/40/26 29/41/26
f 44/42/27 47/43/27 43/39/27
f 25/44/28 35/45/28 34/46/28
f 25/44/29 35/45/29 42/26/29
f 36/23/30 45/47/30 44/42/30
f 45/47/31 36/23/31 46/48/31
f 35/45/32 36/23/32 60/38/32
f 42/26/33 35/45/33 60/38/33
f 30/22/34 58/28/34 57/49/34
f 51/50/35 37/24/35 52/51/35
f 32/36/36 50/52/36 49/53/36
f 53/54/37 55/55/37 33/56/37
f 41/33/38 63/35/38 61/57/38
f 62/31/39 41/33/39 61/57/39
f 67/29/40 82/58/40 31/27/40
f 74/59/41 73/60/41 72/61/41
f 74/62/42 72/63/42 71/64/42
f 43/39/43 72/63/43 73/60/43
f 43/39/44 73/60/44 75/65/44
f 72/63/45 29/41/45 71/64/45
f 73/60/46 74/59/46 75/65/46
f 27/66/47 75/65/47 74/59/47
f 26/67/48 83/68/48 109/69/48
f 79/70/49 82/58/49 83/68/49
f 81/71/50 78/72/50 77/73/50
f 61/74/51 63/75/51 80/76/51
f 62/77/52 61/78/52 64/79/52
f 13/80/53 21/1/53 17/20/53
f 91/81/54 83/68/54 82/58/54
f 77/73/55 99/82/55 81/71/55
f 83/68/56 91/81/56 109/69/56
f 27/66/57 85/83/57 75/65/57
f 108/84/58 26/67/58 109/69/58
f 107/85/59 70/86/59 84/87/59
f 70/86/60 69/88/60 84/87/60
f 87/89/61 103/90/61 94/91/61
f 88/92/62 89/93/62 105/94/62
f 95/95/63 87/89/63 94/91/63
f 85/83/64 90/96/64 67/29/64
f 67/29/65 90/96/65 91/81/65
f 99/97/66 96/98/66 98/99/66
f 99/97/67 87/89/67 96/98/67
f 65/100/68 99/82/68 98/101/68
f 97/102/69 100/103/69 91/104/69
f 92/105/70 100/103/70 97/102/70
f 102/106/71 100/103/71 92/105/71
f 95/95/72 93/107/72 101/108/72
f 100/103/73 102/106/73 88/92/73
f 105/94/74 104/109/74 91/110/74
f 99/111/75 70/112/75 103/90/75
f 86/113/76 103/90/76 107/114/76
f 104/109/77 105/94/77 106/115/77
f 85/116/78 108/117/78 90/118/78
f 19/3/79 23/2/79 1/8/79
f 2/10/80 24/4/80 20/6/80
f 4/7/81 5/11/81 6/14/81
f 7/119/82 22/12/82 3/9/82
f 8/17/83 22/12/83 7/119/83
f 10/15/84 11/120/84 9/13/84
f 10/15/85 13/80/85 11/120/85
f 14/19/86 16/5/86 15/16/86
f 41/33/87 33/56/87 40/34/87
f 20/6/88 16/5/88 18/121/88
f 28/21/89 44/42/89 43/39/89
f 29/41/90 46/48/90 66/25/90
f 30/22/91 67/29/91 58/28/91
f 38/32/92 65/100/92 37/24/92
f 63/35/93 40/34/93 31/27/93
f 41/33/94 62/31/94 39/30/94
f 33/56/95 31/27/95 40/34/95
f 38/32/96 51/50/96 50/52/96
f 38/32/97 50/52/97 32/36/97
f 58/28/98 31/27/98 59/122/98
f 56/37/99 41/33/99 60/38/99
f 42/26/100 60/38/100 37/24/100
f 41/33/101 32/36/101 54/123/101
f 46/48/102 48/40/102 45/47/102
f 60/38/103 41/33/103 54/123/103
f 47/43/104 48/40/104 43/39/104
f 47/43/105 45/47/105 48/40/105
f 80/124/106 31/27/106 82/125/106
f 25/44/107 36/23/107 35/45/107
f 42/26/108 36/23/108 25/44/108
f 46/48/109 36/23/109 42/26/109
f 28/21/110 36/23/110 44/42/110
f 46/48/111 42/26/111 66/25/111
f 56/37/112 30/22/112 57/49/112
f 52/51/113 37/24/113 60/38/113
f 33/56/114 55/55/114 59/122/114
f 64/126/115 38/32/115 62/31/115
f 27/127/116 71/64/116 84/87/116
f 65/100/117 38/32/117 81/71/117
f 66/25/118 37/24/118 65/100/118
f 72/63/119 43/39/119 29/41/119
f 28/21/120 43/39/120 75/65/120
f 71/64/121 29/41/121 66/25/121
f 28/21/122 67/29/122 30/22/122
f 108/84/123 27/66/123 69/128/123
f 84/87/124 69/88/124 27/127/124
f 76/129/125 78/72/125 68/130/125
f 26/67/126 108/84/126 69/128/126
f 70/86/127 26/131/127 69/88/127
f 68/132/128 79/70/128 76/133/128
f 26/131/129 77/73/129 76/129/129
f 68/132/130 80/76/130 79/70/130
f 26/67/131 76/133/131 83/68/131
f 76/133/132 79/70/132 83/68/132
f 79/70/133 80/76/133 82/58/133
f 81/71/134 64/79/134 78/72/134
f 68/130/135 64/79/135 61/78/135
f 98/101/136 66/25/136 65/100/136
f 67/29/137 91/81/137 82/58/137
f 81/71/138 99/82/138 65/100/138
f 77/73/139 70/86/139 99/82/139
f 84/87/140 71/64/140 66/25/140
f 85/83/141 28/21/141 75/65/141
f 86/113/142 94/91/142 103/90/142
f 84/87/143 98/101/143 107/85/143
f 27/66/144 108/84/144 85/83/144
f 92/105/145 89/93/145 102/106/145
f 105/134/146 100/103/146 88/92/146
f 98/99/147 93/107/147 86/113/147
f 88/92/148 102/106/148 89/93/148
f 108/117/149 89/93/149 90/118/149
f 97/102/150 90/118/150 92/105/150
f 101/108/151 98/99/151 96/98/151
f 91/104/152 90/118/152 97/102/152
f 96/98/153 87/89/153 95/95/153
f 93/107/154 98/99/154 101/108/154
f 101/108/155 96/98/155 95/95/155
f 95/95/156 94/91/156 93/107/156
f 109/135/157 106/115/157 108/117/157
f 107/114/158 98/99/158 86/113/158
f 89/93/159 106/115/159 105/94/159
f 87/136/160 99/111/160 103/90/160
f 91/110/161 104/109/161 109/135/161
f 107/114/162 103/90/162 70/112/162
f 13/80/163 10/15/163 21/1/163
f 14/19/164 18/121/164 16/5/164
f 41/33/165 53/54/165 33/56/165
f 33/56/166 59/122/166 31/27/166
f 38/32/167 37/24/167 51/50/167
f 56/37/168 53/54/168 41/33/168
f 46/48/169 29/41/169 48/40/169
f 47/43/170 44/42/170 45/47/170
f 80/124/171 63/35/171 31/27/171
f 64/126/172 81/71/172 38/32/172
f 27/127/173 74/62/173 71/64/173
f 76/129/174 77/73/174 78/72/174
f 26/131/175 70/86/175 77/73/175
f 68/132/176 61/74/176 80/76/176
f 68/130/177 78/72/177 64/79/177
f 98/101/178 84/87/178 66/25/178
f 85/83/179 67/29/179 28/21/179
f 86/113/180 93/107/180 94/91/180
f 92/105/181 90/118/181 89/93/181
f 105/134/182 91/104/182 100/103/182
f 108/117/183 106/115/183 89/93/183
f 109/135/184 104/109/184 106/115/184
usemtl monkey_emissive
f 23/2/13 10/15/13 5/11/13
f 22/12/14 15/16/14 24/4/14
f 23/2/15 21/1/15 10/15/15
f 15/16/16 16/5/16 24/4/16
o Plane
v -81.231056 -1.000000 81.231056
v 81.231056 -1.000000 81.231056
v -81.231056 -1.000000 -81.231056
v 81.231056 -1.000000 -81.231056
vn -0.0000 1.0000 -0.0000
vt 1.000000 0.000000
vt 0.000000 1.000000
vt 0.000000 0.000000
vt 1.000000 1.000000
s 0
usemtl monkey_diffuse
f 111/137/185 112/138/185 110/139/185
f 111/137/185 113/140/185 112/138/185
